<?xml version="1.0" encoding="utf-8"?>
<!-- Generator: Adobe Illustrator 21.1.0, SVG Export Plug-In . SVG Version: 6.00 Build 0)  -->
<svg version="1.1" id="Layer_1" xmlns="http://www.w3.org/2000/svg" xmlns:xlink="http://www.w3.org/1999/xlink" x="0px" y="0px"
	 viewBox="0 0 2663 566.9" style="enable-background:new 0 0 2663 566.9;" xml:space="preserve">
<style type="text/css">
	.st0{fill:#FFFFFF;}
	.st1{fill:#A73529;}
	.st2{fill:none;stroke:#2C8DCC;stroke-miterlimit:10;}
	.st3{fill:#7F7F7F;}
	.st4{fill:none;stroke:#2C8DCC;stroke-width:1.5284;stroke-miterlimit:10;}
</style>
<g>
	<path class="st1" d="M2427.2,275h-29.2v-31h29.4v-58h35.4v58h48.5v31h-48.5v92.4c0,36.6,28.2,44.3,42.9,44.3c5.6,0,9.1-0.8,9.1-0.8
		v32.2c0,0-5.6,0.8-13.5,0.8c-25.8,0-74.1-7.9-74.1-75.1V275z"/>
</g>
<polygon class="st1" points="275.5,220.9 445.2,220.9 445.2,122 119.1,122 119.1,336 275.5,336 "/>
<polygon class="st3" points="288.7,348.1 119.1,348.1 119.1,447 445.2,447 445.2,233 288.7,233 "/>
<path class="st1" d="M737.1,412.2c-8.9,10.1-20,18.2-33.1,24.4c-13.1,6.2-28.3,9.3-45.6,9.3c-16.1,0-30.8-2.7-43.9-8
	c-13.1-5.3-24.2-12.7-33.3-22.1c-9.1-9.4-16.1-20.6-21-33.7c-4.9-13.1-7.4-27.5-7.4-43c0-14.7,2.6-28.5,7.8-41.5
	c5.2-13,12.5-24.3,21.8-33.9c9.4-9.7,20.5-17.3,33.3-22.9c12.8-5.6,27-8.4,42.6-8.4c17,0,32,3,45,9.1c13,6.1,24.1,14.3,33.3,24.6
	l-25.5,24.6c-6.1-7.5-13.4-13.4-22.1-17.7s-18.9-6.5-30.7-6.5c-10.4,0-19.7,1.9-27.9,5.8c-8.2,3.9-15.1,9.2-20.8,16
	c-5.6,6.8-9.9,14.6-13,23.3c-3,8.8-4.5,17.9-4.5,27.5c0,9.2,1.5,18.2,4.5,27c3,8.8,7.4,16.6,13,23.3c5.6,6.8,12.5,12.2,20.8,16.2
	c8.2,4,17.5,6.1,27.9,6.1c11.8,0,22.4-2.2,31.8-6.7c9.4-4.5,17.1-10.4,23.1-17.9L737.1,412.2z"/>
<path class="st1" d="M751.4,238.8h44.5l62.7,157l62.3-157h41.9l-86,201.1h-38.9L751.4,238.8z"/>
<path class="st1" d="M1070.9,439.8V258.2c0-6.3-0.1-12.8-0.4-19.5h37.2l0.3,24.3c11.7-15.3,33.7-27.3,66.7-27.3
	c4.3,0,8.3,0.3,11.9,0.9c3.6,0.6,7,1.4,10.2,2.6l-8.6,36.3c-5.2-2-11.8-3-19.9-3c-8.4,0-16.1,1.6-23.1,4.8
	c-7.1,3.2-13.2,7.6-18.4,13.2c-5.2,5.6-9.3,13.2-12.3,20.7c-3,7.5-4.5,20.4-4.5,28.8v99.9H1070.9z"/>
<path class="st1" d="M1400.8,410.4c-2.3,2.6-5.8,5.9-10.4,9.9c-4.6,4-10.6,7.9-17.9,11.7c-7.4,3.8-16,7-25.9,9.7
	c-9.9,2.7-21.3,4.1-33.9,4.1c-15.6,0-29.8-2.6-42.8-7.8s-24.1-12.5-33.3-22.1c-9.2-9.5-16.4-20.9-21.4-34.2c-5-13.3-7.6-28-7.6-44.1
	c0-14.7,2.4-28.5,7.4-41.3c4.9-12.8,11.8-23.9,20.8-33.3c8.9-9.4,19.5-16.8,31.8-22.3c12.2-5.5,25.7-8.2,40.4-8.2
	c17.3,0,32.1,3.3,44.5,9.9c12.4,6.6,22.6,15.4,30.5,26.4c7.9,11,13.8,23.5,17.5,37.6c3.7,14.1,5.6,28.8,5.6,44.1h-158.7
	c0.3,8.9,2.2,17.2,5.8,24.6c3.6,7.5,8.4,14,14.5,19.5c6.1,5.5,13,9.8,20.8,13c7.8,3.2,16,4.8,24.6,4.8c17,0,31-2.9,41.9-8.6
	c11-5.8,18.9-11.4,23.8-16.9L1400.8,410.4z M1365.8,321.8c-1.2-15.6-6.6-28.8-16.4-39.8c-9.8-11-23.6-16.4-41.5-16.4
	c-9.2,0-17.5,1.6-24.9,4.8c-7.4,3.2-13.6,7.4-18.8,12.5s-9.2,11.2-12.1,17.9c-2.9,6.8-4.5,13.8-4.8,21H1365.8z"/>
<path class="st1" d="M1449.3,129.4h38.9v310.4h-38.9V129.4z"/>
<path class="st1" d="M1725.1,410.4c-2.3,2.6-5.8,5.9-10.4,9.9c-4.6,4-10.6,7.9-17.9,11.7c-7.4,3.8-16,7-25.9,9.7
	c-9.9,2.7-21.3,4.1-33.9,4.1c-15.6,0-29.8-2.6-42.8-7.8s-24.1-12.5-33.3-22.1c-9.2-9.5-16.4-20.9-21.4-34.2c-5-13.3-7.6-28-7.6-44.1
	c0-14.7,2.4-28.5,7.4-41.3c4.9-12.8,11.8-23.9,20.8-33.3c8.9-9.4,19.5-16.8,31.8-22.3c12.2-5.5,25.7-8.2,40.4-8.2
	c17.3,0,32.1,3.3,44.5,9.9c12.4,6.6,22.6,15.4,30.5,26.4c7.9,11,13.8,23.5,17.5,37.6c3.7,14.1,5.6,28.8,5.6,44.1h-158.7
	c0.3,8.9,2.2,17.2,5.8,24.6c3.6,7.5,8.4,14,14.5,19.5c6.1,5.5,13,9.8,20.8,13c7.8,3.2,16,4.8,24.6,4.8c17,0,31-2.9,41.9-8.6
	c11-5.8,18.9-11.4,23.8-16.9L1725.1,410.4z M1690.1,321.8c-1.2-15.6-6.6-28.8-16.4-39.8c-9.8-11-23.6-16.4-41.5-16.4
	c-9.2,0-17.5,1.6-24.9,4.8c-7.4,3.2-13.6,7.4-18.8,12.5s-9.2,11.2-12.1,17.9c-2.9,6.8-4.5,13.8-4.8,21H1690.1z"/>
<path class="st1" d="M1740.7,238.8h44.5l62.7,157l62.3-157h41.9l-86,201.1h-38.9L1740.7,238.8z"/>
<path class="st1" d="M2099.2,415.6c-7.5,10.1-17.4,17.6-29.6,22.5c-12.3,4.9-24.9,7.4-37.8,7.4c-8.4,0-16.6-1.1-24.9-3.2
	c-8.2-2.2-15.7-5.8-22.5-10.8c-6.8-5-12.3-11.5-16.4-19.5c-4.2-7.9-6.3-17.7-6.3-29.2c0-21.6,7.6-38.9,22.7-51.9
	c15.1-13,37-19.5,65.5-19.5c4.6,0,9.5,0.1,14.7,0.4c5.2,0.3,10.1,0.6,14.7,0.9c4.6,0.3,8.6,0.6,12.1,0.9c3.5,0.3,5.9,0.6,7.4,0.9
	v-7.4c0-15-4.5-25.7-13.6-32.2c-9.1-6.5-21.4-9.7-37-9.7c-15.3,0-27.4,2.1-36.3,6.3c-8.9,4.2-16.4,8.4-22.5,12.8l-18.2-26.4
	c3.5-2.9,7.6-5.8,12.5-8.6c4.9-2.9,10.7-5.5,17.3-8c6.6-2.4,14.1-4.5,22.5-6.1c8.4-1.6,18-2.4,29-2.4c25.9,0,46.3,6.3,61.2,18.8
	c14.8,12.5,22.3,30.3,22.3,53.4v117.2c0,6.9,0.1,12.8,0.4,17.7H2100L2099.2,415.6z M2098.7,344.7c-1.2-0.3-3.4-0.6-6.7-1.1
	c-3.3-0.4-7.1-0.8-11.5-1.1c-4.3-0.3-8.9-0.6-13.8-0.9c-4.9-0.3-9.7-0.4-14.3-0.4c-11,0-19.8,1.3-26.6,3.9c-6.8,2.6-12.1,5.8-16,9.7
	s-6.6,8.2-8,13c-1.4,4.8-2.2,9.3-2.2,13.6c0,11,3.7,19.2,11.2,24.9c7.5,5.6,17.9,8.4,31.1,8.4c7.5,0,14.6-1.3,21.4-3.9
	c6.8-2.6,12.8-6.1,17.9-10.4c5.2-4.3,9.4-9.4,12.5-15.1c3.2-5.8,4.8-11.7,4.8-17.7V344.7z"/>
<path class="st1" d="M2189.1,439.8V259.5c0-6.6-0.1-13.5-0.4-20.8h37.2l-0.2,25.6c12.7-17.7,36.7-31.7,68.9-30.4
	c26.2,1.1,45.7,7.6,58.4,22.9c12.7,15.3,19,36,19,62.3v120.6h-38.9V322.2c0-18.7-4-32.5-12.1-41.3c-8.1-8.8-19.5-13.2-34.2-13.2
	c-11.2,0-20.6,4.3-28.1,8.9c-7.5,4.6-13.5,10.6-17.9,17.9c-4.5,7.4-7.7,15.7-9.7,25.1c-2,9.4-3,19-3,28.8v91.4H2189.1z"/>
</svg>
