<svg fill="#000000" xmlns="http://www.w3.org/2000/svg" xmlns:xlink="http://www.w3.org/1999/xlink" version="1.1" x="0px" y="0px" viewBox="0 0 100 100" style="enable-background:new 0 0 100 100;" xml:space="preserve"><g><path d="M49.999,35.935c3.949,0,7.15,3.2,7.15,7.149c0,3.948-3.201,7.148-7.15,7.148s-7.149-3.2-7.149-7.148   C42.849,39.135,46.05,35.935,49.999,35.935z M61.604,55.43c-0.196-0.611-0.662-1.152-1.166-1.469   c-1.558-0.934-4.704-2.178-8.046-2.414l-2.144,3.023l2.162,15.121l-2.413,2.815l-2.413-2.815l2.163-15.121l-2.144-3.023   c-3.342,0.236-6.489,1.481-8.047,2.415c-0.501,0.317-0.966,0.858-1.162,1.468c0,0-3.595,11.347-3.588,11.641l0.255,9.943   c0.034,1.431,1.204,2.566,2.627,2.566c0.021,0,0.042,0,0.064-0.001c1.451-0.034,2.6-1.239,2.565-2.69l-0.245-9.5l2.201-6.758   c0.524-0.002,0.637,0.634,0.637,1.152l0.014,35.003c0,1.774,1.452,3.214,3.242,3.214c1.791,0,3.242-1.439,3.242-3.214v-18.71h1.177   v18.71c0,1.774,1.452,3.214,3.242,3.214s3.242-1.439,3.242-3.214l0.015-35.003c0-0.519,0.113-1.155,0.637-1.155   c0.001,0.003,2.203,6.761,2.203,6.761l-0.244,9.5c-0.035,1.451,1.113,2.656,2.564,2.69c0.021,0.001,0.043,0.001,0.064,0.001   c1.422,0,2.592-1.137,2.627-2.566l0.255-9.943C65.199,66.776,61.604,55.43,61.604,55.43z M7.278,37.628   c0,3.573,2.896,6.47,6.47,6.47c3.573,0,6.47-2.896,6.47-6.47s-2.897-6.47-6.47-6.47C10.175,31.158,7.278,34.055,7.278,37.628z    M24.251,48.801c-0.178-0.554-0.599-1.043-1.055-1.33c-1.41-0.846-4.257-1.971-7.281-2.184l-1.94,2.735l1.957,13.685l-2.183,2.547   l-2.184-2.547l1.957-13.685l-1.94-2.735c-3.024,0.213-5.872,1.34-7.282,2.186c-0.453,0.287-0.874,0.777-1.051,1.328   c0,0-3.253,10.268-3.247,10.533l0.231,8.999c0.031,1.294,1.089,2.321,2.377,2.321c0.019,0,0.039,0,0.058,0   c1.313-0.031,2.353-1.121,2.321-2.436l-0.222-8.596l1.992-6.116c0.474-0.002,0.577,0.573,0.577,1.043l0.013,31.676   c0,1.606,1.313,2.908,2.934,2.908c1.621,0,2.934-1.302,2.934-2.908V69.294h1.065v16.932c0,1.606,1.314,2.908,2.935,2.908   c1.62,0,2.934-1.302,2.934-2.908l0.013-31.676c0-0.47,0.103-1.046,0.577-1.046c0,0.002,1.994,6.119,1.994,6.119l-0.222,8.596   c-0.031,1.314,1.008,2.404,2.321,2.436c0.02,0,0.039,0,0.058,0c1.288,0,2.346-1.027,2.377-2.321l0.231-8.999   C27.504,59.068,24.251,48.801,24.251,48.801z M7.088,21.307l2.882,2.883l3.778-3.779l3.78,3.78l2.884-2.884l-3.78-3.779   l3.779-3.779l-2.882-2.881l-3.778,3.777l-3.779-3.778L7.087,13.75l3.779,3.779L7.088,21.307z M79.779,37.628   c0,3.573,2.896,6.47,6.471,6.47c3.572,0,6.469-2.896,6.469-6.47s-2.896-6.47-6.469-6.47C82.676,31.158,79.779,34.055,79.779,37.628   z M96.752,48.801c-0.178-0.554-0.6-1.043-1.055-1.33c-1.41-0.846-4.257-1.971-7.281-2.184l-1.94,2.735l1.957,13.685l-2.183,2.547   l-2.184-2.547l1.956-13.685l-1.94-2.735c-3.023,0.213-5.871,1.34-7.282,2.186c-0.453,0.287-0.874,0.777-1.051,1.328   c0,0-3.253,10.268-3.247,10.533l0.23,8.999c0.031,1.294,1.09,2.321,2.378,2.321c0.019,0,0.038,0,0.058,0   c1.313-0.031,2.354-1.121,2.321-2.436l-0.222-8.596l1.992-6.116c0.474-0.002,0.576,0.573,0.576,1.043l0.013,31.676   c0,1.606,1.313,2.908,2.935,2.908c1.619,0,2.934-1.302,2.934-2.908V69.294h1.064v16.932c0,1.606,1.314,2.908,2.935,2.908   s2.934-1.302,2.934-2.908l0.013-31.676c0-0.47,0.104-1.046,0.577-1.046c0.001,0.002,1.994,6.119,1.994,6.119l-0.222,8.596   c-0.031,1.314,1.008,2.404,2.321,2.436c0.02,0,0.038,0,0.058,0c1.287,0,2.346-1.027,2.377-2.321l0.231-8.999   C100.006,59.068,96.752,48.801,96.752,48.801z M79.589,21.307l2.882,2.883l3.779-3.779l3.779,3.78l2.884-2.884l-3.78-3.779   l3.778-3.779l-2.882-2.881l-3.778,3.777l-3.779-3.778l-2.884,2.884l3.779,3.779L79.589,21.307z M73.141,6.4L66.604,0L48.719,18.167   l-7.513-7.355l-6.4,6.536l14.049,13.756L73.141,6.4z"/></g></svg>