<svg fill="#000000" xmlns="http://www.w3.org/2000/svg" xmlns:xlink="http://www.w3.org/1999/xlink" version="1.1" x="0px" y="0px" viewBox="0 0 100 100" enable-background="new 0 0 100 100" xml:space="preserve"><path d="M62.846,54.446c-0.272-2.355-1.321-4.487-2.818-6.068c1.021-3.072,3.612-5.193,6.25-5.193c0,0,1.994,1.222,4.207,1.222  c2.212,0,4.208-1.222,4.208-1.222c2.103,0,4.194,1.334,5.453,3.434h-8.521c-0.516,0-0.973,0.422-1.045,0.903l-0.869,6.925H62.846z   M70.895,42.518c3.165,0,5.725-2.559,5.725-5.722c0-3.165-2.56-5.724-5.725-5.724c-3.163,0-5.756,2.559-5.756,5.724  C65.139,39.958,67.731,42.518,70.895,42.518z M84.83,47.851l-0.812,6.596H70.982l0.811-6.596H84.83z M79.291,51.042  c0-0.614-0.476-1.089-1.088-1.089c-0.615,0-1.123,0.476-1.123,1.089c0,0.614,0.508,1.123,1.123,1.123  C78.815,52.164,79.291,51.656,79.291,51.042z M62.929,55.679v3.696h12.323v7.394h-3.697v9.892h19.749V59.375H95v-3.696H62.929z   M54.285,46.913c0,0-2.198,1.373-4.664,1.373c-2.497,0-4.697-1.373-4.697-1.373c-2.313,0-4.653,1.505-6.062,3.837h9.571  c0.516,0,0.974,0.423,1.046,0.903l0.965,7.723h11.254c0,0,0-1.314,0-3.696C61.697,50.75,58,46.913,54.285,46.913z M49.179,46.201  c3.516,0,6.356-2.836,6.356-6.352c0-3.516-2.841-6.373-6.356-6.373c-3.515,0-6.38,2.857-6.38,6.373  C42.799,43.365,45.664,46.201,49.179,46.201z M34.43,59.375l-0.94-7.393h14.774l0.941,7.393H34.43z M39.807,55.679  c0,0.689,0.543,1.232,1.231,1.232c0.69,0,1.233-0.543,1.233-1.232c0-0.689-0.543-1.233-1.233-1.233  C40.35,54.446,39.807,54.99,39.807,55.679z M22.23,60.608v4.929h3.696v18.517h44.396V65.537h3.697v-4.929H22.23z M34.861,26.468  v13.555c0,2.222-1.837,4.061-4.094,4.061h-1.342v5.434l-8.152-5.434H9.06c-2.222,0-4.06-1.838-4.06-4.061V26.468  c0-2.257,1.838-4.094,4.06-4.094h21.708C33.024,22.374,34.861,24.211,34.861,26.468z M11.144,33.37l3.513-1.667  c0.252-0.107,0.428-0.217,0.53-0.364c0.11-0.125,0.183-0.299,0.183-0.521c0-0.208-0.079-0.398-0.235-0.549  c-0.127-0.158-0.311-0.236-0.555-0.236c-0.081,0-0.167,0.008-0.261,0.059c-0.084,0.015-0.197,0.08-0.373,0.163l-4.831,2.234  c-0.526,0.25-0.793,0.54-0.793,0.93c0,0.354,0.26,0.639,0.742,0.884l4.884,2.221c0.119,0.073,0.256,0.1,0.348,0.149  c0.1,0.019,0.194,0.027,0.284,0.027c0.244,0,0.428-0.08,0.555-0.203c0.156-0.158,0.235-0.342,0.235-0.583  c0-0.189-0.072-0.363-0.182-0.516c-0.102-0.114-0.278-0.221-0.532-0.361L11.144,33.37z M22.219,29.13  c0-0.247-0.097-0.443-0.316-0.606c-0.181-0.158-0.378-0.208-0.621-0.208c-0.179,0-0.348,0.045-0.464,0.194  c-0.103,0.103-0.24,0.285-0.35,0.552l-3.529,7.602c-0.144,0.273-0.179,0.464-0.179,0.624c0,0.213,0.096,0.442,0.281,0.605  c0.18,0.126,0.377,0.206,0.623,0.206c0.179,0,0.348-0.077,0.497-0.192c0.103-0.135,0.206-0.315,0.348-0.577l3.522-7.545  c0.047-0.145,0.11-0.287,0.128-0.375C22.209,29.315,22.219,29.221,22.219,29.13z M30.481,33.418c0-0.391-0.265-0.68-0.855-0.948  l-4.763-2.22c-0.168-0.077-0.28-0.141-0.37-0.157c-0.129-0.025-0.22-0.061-0.306-0.061c-0.209,0-0.394,0.08-0.548,0.238  c-0.15,0.149-0.198,0.341-0.198,0.547c0,0.222,0.039,0.396,0.184,0.521c0.102,0.147,0.274,0.255,0.526,0.364l3.516,1.667  l-3.515,1.667c-0.257,0.14-0.432,0.248-0.532,0.373c-0.141,0.142-0.179,0.315-0.179,0.503c0,0.243,0.048,0.429,0.199,0.583  c0.154,0.125,0.338,0.203,0.547,0.203c0.126,0,0.222-0.009,0.32-0.027c0.093-0.049,0.197-0.078,0.346-0.149l4.848-2.219  C30.221,34.06,30.481,33.774,30.481,33.418z"/></svg>