<svg fill="#000000" xmlns="http://www.w3.org/2000/svg" xmlns:xlink="http://www.w3.org/1999/xlink" version="1.1" x="0px" y="0px" viewBox="0 0 100 100" enable-background="new 0 0 100 100" xml:space="preserve"><g><path d="M73.04,58.465c-10.024,0-18.15,8.126-18.15,18.15c0,10.024,8.126,18.15,18.15,18.15c10.024,0,18.15-8.126,18.15-18.15   C91.191,66.591,83.064,58.465,73.04,58.465z M85.618,73.48l-6.248,5.61l1.693,8.418c0.034,0.169-0.034,0.343-0.175,0.444   c-0.141,0.101-0.327,0.109-0.477,0.023l-7.371-4.285l-7.371,4.285c-0.149,0.087-0.336,0.078-0.477-0.023   c-0.141-0.101-0.209-0.274-0.175-0.444l1.691-8.418l-6.248-5.61c-0.128-0.115-0.177-0.294-0.126-0.458   c0.051-0.164,0.193-0.283,0.364-0.305l8.429-1.072l3.513-7.601c0.072-0.156,0.228-0.255,0.399-0.255   c0.171,0,0.327,0.099,0.399,0.255l3.513,7.601l8.427,1.072c0.171,0.022,0.313,0.141,0.364,0.305   C85.796,73.186,85.746,73.365,85.618,73.48z"/><path d="M33.842,19.219c0-11.917,3.245-13.985,10.923-13.985s11.011,2.131,11.006,13.985c-0.003,8.189-4.138,15.889-11.084,15.889   C37.897,35.108,33.842,29.346,33.842,19.219z"/><path d="M50.635,76.616c0-12.618,10.229-22.848,22.848-22.848c0.694,0,1.376,0.043,2.054,0.104l0.013-6.847   c-0.599-4.788-5.008-7.836-9.834-7.841l-8.041-0.103l-8.769,16.076l-1.161-8.132l1.357-2.714c1.473-2.947-0.554-5.23-1.937-5.23   h-4.799c-1.382,0-3.41,2.284-1.937,5.23l1.357,2.714l-1.162,8.132L31.856,39.08l-8.672,0.053c-4.956-0.005-8.754,2.958-9.203,7.891   V74.83c7.752,7.788,19.578,11.145,31.435,11.145c2.431,0,4.779-0.13,7.049-0.392C51.289,82.829,50.635,79.799,50.635,76.616z"/></g></svg>